<?xml version="1.0" encoding="UTF-8" standalone="no"?>
<!DOCTYPE svg PUBLIC "-//W3C//DTD SVG 1.1//EN"
 "http://www.w3.org/Graphics/SVG/1.1/DTD/svg11.dtd">
<!-- Generated by graphviz version 2.43.0 (0)
 -->
<!-- Title: /home/runner/work/occ/occ/include/occ/main/occ_elastic_fit.h Pages: 1 -->
<svg width="883pt" height="159pt"
 viewBox="0.00 0.00 882.50 159.00" xmlns="http://www.w3.org/2000/svg" xmlns:xlink="http://www.w3.org/1999/xlink">
<g id="graph0" class="graph" transform="scale(1 1) rotate(0) translate(4 155)">
<title>/home/runner/work/occ/occ/include/occ/main/occ_elastic_fit.h</title>
<!-- Node1 -->
<g id="Node000001" class="node">
<title>Node1</title>
<g id="a_Node000001"><a xlink:title=" ">
<polygon fill="#999999" stroke="#666666" points="514,-151 386,-151 386,-110 514,-110 514,-151"/>
<text text-anchor="start" x="394" y="-139" font-family="Helvetica,sans-Serif" font-size="10.00">/home/runner/work/occ</text>
<text text-anchor="start" x="394" y="-128" font-family="Helvetica,sans-Serif" font-size="10.00">/occ/include/occ/main</text>
<text text-anchor="middle" x="450" y="-117" font-family="Helvetica,sans-Serif" font-size="10.00">/occ_elastic_fit.h</text>
</a>
</g>
</g>
<!-- Node2 -->
<g id="Node000002" class="node">
<title>Node2</title>
<g id="a_Node000002"><a xlink:title=" ">
<polygon fill="#e0e0e0" stroke="#999999" points="74,-74 0,-74 0,-55 74,-55 74,-74"/>
<text text-anchor="middle" x="37" y="-62" font-family="Helvetica,sans-Serif" font-size="10.00">CLI/App.hpp</text>
</a>
</g>
</g>
<!-- Node1&#45;&gt;Node2 -->
<g id="edge1_Node000001_Node000002" class="edge">
<title>Node1&#45;&gt;Node2</title>
<g id="a_edge1_Node000001_Node000002"><a xlink:title=" ">
<path fill="none" stroke="#63b8ff" d="M385.92,-120.46C314.75,-110.27 196.17,-92.86 84.25,-74.17"/>
<polygon fill="#63b8ff" stroke="#63b8ff" points="84.58,-70.67 74.14,-72.47 83.42,-77.58 84.58,-70.67"/>
</a>
</g>
</g>
<!-- Node3 -->
<g id="Node000003" class="node">
<title>Node3</title>
<g id="a_Node000003"><a xlink:title=" ">
<polygon fill="#e0e0e0" stroke="#999999" points="198,-74 92,-74 92,-55 198,-55 198,-74"/>
<text text-anchor="middle" x="145" y="-62" font-family="Helvetica,sans-Serif" font-size="10.00">Eigen/Eigenvalues</text>
</a>
</g>
</g>
<!-- Node1&#45;&gt;Node3 -->
<g id="edge2_Node000001_Node000003" class="edge">
<title>Node1&#45;&gt;Node3</title>
<g id="a_edge2_Node000001_Node000003"><a xlink:title=" ">
<path fill="none" stroke="#63b8ff" d="M385.69,-116.01C329.16,-104.14 248,-87.11 195.89,-76.18"/>
<polygon fill="#63b8ff" stroke="#63b8ff" points="196.38,-72.7 185.87,-74.08 194.94,-79.56 196.38,-72.7"/>
</a>
</g>
</g>
<!-- Node4 -->
<g id="Node000004" class="node">
<title>Node4</title>
<g id="a_Node000004"><a xlink:title=" ">
<polygon fill="#e0e0e0" stroke="#999999" points="280,-74 216,-74 216,-55 280,-55 280,-74"/>
<text text-anchor="middle" x="248" y="-62" font-family="Helvetica,sans-Serif" font-size="10.00">algorithm</text>
</a>
</g>
</g>
<!-- Node1&#45;&gt;Node4 -->
<g id="edge3_Node000001_Node000004" class="edge">
<title>Node1&#45;&gt;Node4</title>
<g id="a_edge3_Node000001_Node000004"><a xlink:title=" ">
<path fill="none" stroke="#63b8ff" d="M388.3,-109.95C354.36,-99.2 313.41,-86.22 284.53,-77.07"/>
<polygon fill="#63b8ff" stroke="#63b8ff" points="285.44,-73.69 274.85,-74.01 283.33,-80.36 285.44,-73.69"/>
</a>
</g>
</g>
<!-- Node5 -->
<g id="Node000005" class="node">
<title>Node5</title>
<g id="a_Node000005"><a xlink:title=" ">
<polygon fill="#e0e0e0" stroke="#999999" points="259.5,-19 212.5,-19 212.5,0 259.5,0 259.5,-19"/>
<text text-anchor="middle" x="236" y="-7" font-family="Helvetica,sans-Serif" font-size="10.00">cmath</text>
</a>
</g>
</g>
<!-- Node1&#45;&gt;Node5 -->
<g id="edge4_Node000001_Node000005" class="edge">
<title>Node1&#45;&gt;Node5</title>
<g id="a_edge4_Node000001_Node000005"><a xlink:title=" ">
<path fill="none" stroke="#63b8ff" d="M401.08,-109.9C378.1,-100.08 350.63,-87.42 327,-74 300.8,-59.12 272.65,-38.72 254.71,-25.1"/>
<polygon fill="#63b8ff" stroke="#63b8ff" points="256.84,-22.32 246.77,-19.01 252.58,-27.87 256.84,-22.32"/>
</a>
</g>
</g>
<!-- Node6 -->
<g id="Node000006" class="node">
<title>Node6</title>
<g id="a_Node000006"><a xlink:href="linear__algebra_8h.html" target="_top" xlink:title=" ">
<polygon fill="white" stroke="#666666" points="586.5,-74 447.5,-74 447.5,-55 586.5,-55 586.5,-74"/>
<text text-anchor="middle" x="517" y="-62" font-family="Helvetica,sans-Serif" font-size="10.00">occ/core/linear_algebra.h</text>
</a>
</g>
</g>
<!-- Node1&#45;&gt;Node6 -->
<g id="edge5_Node000001_Node000006" class="edge">
<title>Node1&#45;&gt;Node6</title>
<g id="a_edge5_Node000001_Node000006"><a xlink:title=" ">
<path fill="none" stroke="#63b8ff" d="M470.47,-109.95C480.11,-100.74 491.46,-89.9 500.54,-81.23"/>
<polygon fill="#63b8ff" stroke="#63b8ff" points="503.02,-83.7 507.83,-74.26 498.18,-78.64 503.02,-83.7"/>
</a>
</g>
</g>
<!-- Node10 -->
<g id="Node000010" class="node">
<title>Node10</title>
<g id="a_Node000010"><a xlink:href="log_8h.html" target="_top" xlink:title=" ">
<polygon fill="white" stroke="#666666" points="715,-74 631,-74 631,-55 715,-55 715,-74"/>
<text text-anchor="middle" x="673" y="-62" font-family="Helvetica,sans-Serif" font-size="10.00">occ/core/log.h</text>
</a>
</g>
</g>
<!-- Node1&#45;&gt;Node10 -->
<g id="edge9_Node000001_Node000010" class="edge">
<title>Node1&#45;&gt;Node10</title>
<g id="a_edge9_Node000001_Node000010"><a xlink:title=" ">
<path fill="none" stroke="#63b8ff" d="M514.2,-111.07C552.68,-100.03 600.39,-86.34 633.41,-76.86"/>
<polygon fill="#63b8ff" stroke="#63b8ff" points="634.52,-80.19 643.16,-74.06 632.59,-73.46 634.52,-80.19"/>
</a>
</g>
</g>
<!-- Node13 -->
<g id="Node000013" class="node">
<title>Node13</title>
<g id="a_Node000013"><a xlink:title=" ">
<polygon fill="#e0e0e0" stroke="#999999" points="807,-19 763,-19 763,0 807,0 807,-19"/>
<text text-anchor="middle" x="785" y="-7" font-family="Helvetica,sans-Serif" font-size="10.00">string</text>
</a>
</g>
</g>
<!-- Node1&#45;&gt;Node13 -->
<g id="edge17_Node000001_Node000013" class="edge">
<title>Node1&#45;&gt;Node13</title>
<g id="a_edge17_Node000001_Node000013"><a xlink:title=" ">
<path fill="none" stroke="#63b8ff" d="M514.07,-127.28C572.09,-122.86 658.29,-110.13 724,-74 744.63,-62.66 762.52,-41.97 773.5,-27.3"/>
<polygon fill="#63b8ff" stroke="#63b8ff" points="776.41,-29.24 779.4,-19.07 770.73,-25.16 776.41,-29.24"/>
</a>
</g>
</g>
<!-- Node14 -->
<g id="Node000014" class="node">
<title>Node14</title>
<g id="a_Node000014"><a xlink:title=" ">
<polygon fill="#e0e0e0" stroke="#999999" points="872.5,-19 825.5,-19 825.5,0 872.5,0 872.5,-19"/>
<text text-anchor="middle" x="849" y="-7" font-family="Helvetica,sans-Serif" font-size="10.00">vector</text>
</a>
</g>
</g>
<!-- Node1&#45;&gt;Node14 -->
<g id="edge18_Node000001_Node000014" class="edge">
<title>Node1&#45;&gt;Node14</title>
<g id="a_edge18_Node000001_Node000014"><a xlink:title=" ">
<path fill="none" stroke="#63b8ff" d="M514.02,-124.86C576.14,-118.71 672.18,-104.78 750,-74 780.49,-61.94 811.68,-40.03 830.7,-25.37"/>
<polygon fill="#63b8ff" stroke="#63b8ff" points="833.07,-27.95 838.76,-19.01 828.74,-22.45 833.07,-27.95"/>
</a>
</g>
</g>
<!-- Node15 -->
<g id="Node000015" class="node">
<title>Node15</title>
<g id="a_Node000015"><a xlink:href="units_8h.html" target="_top" xlink:title=" ">
<polygon fill="white" stroke="#666666" points="429.5,-74 336.5,-74 336.5,-55 429.5,-55 429.5,-74"/>
<text text-anchor="middle" x="383" y="-62" font-family="Helvetica,sans-Serif" font-size="10.00">occ/core/units.h</text>
</a>
</g>
</g>
<!-- Node1&#45;&gt;Node15 -->
<g id="edge14_Node000001_Node000015" class="edge">
<title>Node1&#45;&gt;Node15</title>
<g id="a_edge14_Node000001_Node000015"><a xlink:title=" ">
<path fill="none" stroke="#63b8ff" d="M429.53,-109.95C419.89,-100.74 408.54,-89.9 399.46,-81.23"/>
<polygon fill="#63b8ff" stroke="#63b8ff" points="401.82,-78.64 392.17,-74.26 396.98,-83.7 401.82,-78.64"/>
</a>
</g>
</g>
<!-- Node16 -->
<g id="Node000016" class="node">
<title>Node16</title>
<g id="a_Node000016"><a xlink:title=" ">
<polygon fill="#e0e0e0" stroke="#999999" points="874.5,-74 809.5,-74 809.5,-55 874.5,-55 874.5,-74"/>
<text text-anchor="middle" x="842" y="-62" font-family="Helvetica,sans-Serif" font-size="10.00">stdexcept</text>
</a>
</g>
</g>
<!-- Node1&#45;&gt;Node16 -->
<g id="edge16_Node000001_Node000016" class="edge">
<title>Node1&#45;&gt;Node16</title>
<g id="a_edge16_Node000001_Node000016"><a xlink:title=" ">
<path fill="none" stroke="#63b8ff" d="M514.28,-119.54C583.62,-108.71 697.23,-90.7 795,-74 796.46,-73.75 797.94,-73.5 799.43,-73.24"/>
<polygon fill="#63b8ff" stroke="#63b8ff" points="800.16,-76.66 809.4,-71.48 798.94,-69.77 800.16,-76.66"/>
</a>
</g>
</g>
<!-- Node7 -->
<g id="Node000007" class="node">
<title>Node7</title>
<g id="a_Node000007"><a xlink:title=" ">
<polygon fill="#e0e0e0" stroke="#999999" points="354.5,-19 277.5,-19 277.5,0 354.5,0 354.5,-19"/>
<text text-anchor="middle" x="316" y="-7" font-family="Helvetica,sans-Serif" font-size="10.00">Eigen/Dense</text>
</a>
</g>
</g>
<!-- Node6&#45;&gt;Node7 -->
<g id="edge6_Node000006_Node000007" class="edge">
<title>Node6&#45;&gt;Node7</title>
<g id="a_edge6_Node000006_Node000007"><a xlink:title=" ">
<path fill="none" stroke="#63b8ff" d="M484.71,-54.98C450.38,-45.93 395.94,-31.58 358.23,-21.64"/>
<polygon fill="#63b8ff" stroke="#63b8ff" points="359.11,-18.25 348.55,-19.08 357.32,-25.02 359.11,-18.25"/>
</a>
</g>
</g>
<!-- Node8 -->
<g id="Node000008" class="node">
<title>Node8</title>
<g id="a_Node000008"><a xlink:title=" ">
<polygon fill="#e0e0e0" stroke="#999999" points="465.5,-19 372.5,-19 372.5,0 465.5,0 465.5,-19"/>
<text text-anchor="middle" x="419" y="-7" font-family="Helvetica,sans-Serif" font-size="10.00">Eigen/StdVector</text>
</a>
</g>
</g>
<!-- Node6&#45;&gt;Node8 -->
<g id="edge7_Node000006_Node000008" class="edge">
<title>Node6&#45;&gt;Node8</title>
<g id="a_edge7_Node000006_Node000008"><a xlink:title=" ">
<path fill="none" stroke="#63b8ff" d="M501.25,-54.98C485.77,-46.61 461.91,-33.7 443.86,-23.95"/>
<polygon fill="#63b8ff" stroke="#63b8ff" points="445.49,-20.85 435.03,-19.17 442.16,-27.01 445.49,-20.85"/>
</a>
</g>
</g>
<!-- Node9 -->
<g id="Node000009" class="node">
<title>Node9</title>
<g id="a_Node000009"><a xlink:title=" ">
<polygon fill="#e0e0e0" stroke="#999999" points="550.5,-19 483.5,-19 483.5,0 550.5,0 550.5,-19"/>
<text text-anchor="middle" x="517" y="-7" font-family="Helvetica,sans-Serif" font-size="10.00">fmt/core.h</text>
</a>
</g>
</g>
<!-- Node6&#45;&gt;Node9 -->
<g id="edge8_Node000006_Node000009" class="edge">
<title>Node6&#45;&gt;Node9</title>
<g id="a_edge8_Node000006_Node000009"><a xlink:title=" ">
<path fill="none" stroke="#63b8ff" d="M517,-54.75C517,-47.8 517,-37.85 517,-29.13"/>
<polygon fill="#63b8ff" stroke="#63b8ff" points="520.5,-29.09 517,-19.09 513.5,-29.09 520.5,-29.09"/>
</a>
</g>
</g>
<!-- Node11 -->
<g id="Node000011" class="node">
<title>Node11</title>
<g id="a_Node000011"><a xlink:title=" ">
<polygon fill="#e0e0e0" stroke="#999999" points="633.5,-19 568.5,-19 568.5,0 633.5,0 633.5,-19"/>
<text text-anchor="middle" x="601" y="-7" font-family="Helvetica,sans-Serif" font-size="10.00">functional</text>
</a>
</g>
</g>
<!-- Node10&#45;&gt;Node11 -->
<g id="edge10_Node000010_Node000011" class="edge">
<title>Node10&#45;&gt;Node11</title>
<g id="a_edge10_Node000010_Node000011"><a xlink:title=" ">
<path fill="none" stroke="#63b8ff" d="M661.43,-54.98C650.58,-47 634.12,-34.88 621.12,-25.31"/>
<polygon fill="#63b8ff" stroke="#63b8ff" points="622.91,-22.28 612.78,-19.17 618.76,-27.92 622.91,-22.28"/>
</a>
</g>
</g>
<!-- Node12 -->
<g id="Node000012" class="node">
<title>Node12</title>
<g id="a_Node000012"><a xlink:title=" ">
<polygon fill="#e0e0e0" stroke="#999999" points="744.5,-19 651.5,-19 651.5,0 744.5,0 744.5,-19"/>
<text text-anchor="middle" x="698" y="-7" font-family="Helvetica,sans-Serif" font-size="10.00">spdlog/spdlog.h</text>
</a>
</g>
</g>
<!-- Node10&#45;&gt;Node12 -->
<g id="edge11_Node000010_Node000012" class="edge">
<title>Node10&#45;&gt;Node12</title>
<g id="a_edge11_Node000010_Node000012"><a xlink:title=" ">
<path fill="none" stroke="#63b8ff" d="M677.13,-54.75C680.51,-47.57 685.42,-37.18 689.62,-28.27"/>
<polygon fill="#63b8ff" stroke="#63b8ff" points="692.85,-29.63 693.95,-19.09 686.52,-26.64 692.85,-29.63"/>
</a>
</g>
</g>
<!-- Node10&#45;&gt;Node13 -->
<g id="edge12_Node000010_Node000013" class="edge">
<title>Node10&#45;&gt;Node13</title>
<g id="a_edge12_Node000010_Node000013"><a xlink:title=" ">
<path fill="none" stroke="#63b8ff" d="M690.99,-54.98C708.93,-46.5 736.72,-33.35 757.43,-23.54"/>
<polygon fill="#63b8ff" stroke="#63b8ff" points="759.14,-26.61 766.68,-19.17 756.14,-20.28 759.14,-26.61"/>
</a>
</g>
</g>
<!-- Node10&#45;&gt;Node14 -->
<g id="edge13_Node000010_Node000014" class="edge">
<title>Node10&#45;&gt;Node14</title>
<g id="a_edge13_Node000010_Node000014"><a xlink:title=" ">
<path fill="none" stroke="#63b8ff" d="M701.28,-54.98C732.45,-45.6 782.56,-30.51 815.63,-20.55"/>
<polygon fill="#63b8ff" stroke="#63b8ff" points="816.74,-23.87 825.31,-17.63 814.72,-17.17 816.74,-23.87"/>
</a>
</g>
</g>
<!-- Node15&#45;&gt;Node5 -->
<g id="edge15_Node000015_Node000005" class="edge">
<title>Node15&#45;&gt;Node5</title>
<g id="a_edge15_Node000015_Node000005"><a xlink:title=" ">
<path fill="none" stroke="#63b8ff" d="M359.38,-54.98C334.95,-46.18 296.6,-32.35 269.14,-22.45"/>
<polygon fill="#63b8ff" stroke="#63b8ff" points="270.15,-19.09 259.56,-18.99 267.78,-25.68 270.15,-19.09"/>
</a>
</g>
</g>
</g>
</svg>
