<?xml version="1.0" encoding="UTF-8" standalone="no"?>
<!DOCTYPE svg PUBLIC "-//W3C//DTD SVG 1.1//EN"
 "http://www.w3.org/Graphics/SVG/1.1/DTD/svg11.dtd">
<!-- Generated by graphviz version 2.43.0 (0)
 -->
<!-- Title: /home/runner/work/occ/occ/include/occ/main/occ_elastic_fit.h Pages: 1 -->
<svg width="676pt" height="159pt"
 viewBox="0.00 0.00 675.50 159.00" xmlns="http://www.w3.org/2000/svg" xmlns:xlink="http://www.w3.org/1999/xlink">
<g id="graph0" class="graph" transform="scale(1 1) rotate(0) translate(4 155)">
<title>/home/runner/work/occ/occ/include/occ/main/occ_elastic_fit.h</title>
<!-- Node1 -->
<g id="Node000001" class="node">
<title>Node1</title>
<g id="a_Node000001"><a xlink:title=" ">
<polygon fill="#999999" stroke="#666666" points="452,-151 324,-151 324,-110 452,-110 452,-151"/>
<text text-anchor="start" x="332" y="-139" font-family="Helvetica,sans-Serif" font-size="10.00">/home/runner/work/occ</text>
<text text-anchor="start" x="332" y="-128" font-family="Helvetica,sans-Serif" font-size="10.00">/occ/include/occ/main</text>
<text text-anchor="middle" x="388" y="-117" font-family="Helvetica,sans-Serif" font-size="10.00">/occ_elastic_fit.h</text>
</a>
</g>
</g>
<!-- Node2 -->
<g id="Node000002" class="node">
<title>Node2</title>
<g id="a_Node000002"><a xlink:title=" ">
<polygon fill="#e0e0e0" stroke="#999999" points="74,-74 0,-74 0,-55 74,-55 74,-74"/>
<text text-anchor="middle" x="37" y="-62" font-family="Helvetica,sans-Serif" font-size="10.00">CLI/App.hpp</text>
</a>
</g>
</g>
<!-- Node1&#45;&gt;Node2 -->
<g id="edge1_Node000001_Node000002" class="edge">
<title>Node1&#45;&gt;Node2</title>
<g id="a_edge1_Node000001_Node000002"><a xlink:title=" ">
<path fill="none" stroke="#63b8ff" d="M323.62,-117.76C254.26,-105.11 145.55,-85.29 83.86,-74.04"/>
<polygon fill="#63b8ff" stroke="#63b8ff" points="84.48,-70.6 74.01,-72.25 83.22,-77.49 84.48,-70.6"/>
</a>
</g>
</g>
<!-- Node3 -->
<g id="Node000003" class="node">
<title>Node3</title>
<g id="a_Node000003"><a xlink:title=" ">
<polygon fill="#e0e0e0" stroke="#999999" points="53.5,-19 6.5,-19 6.5,0 53.5,0 53.5,-19"/>
<text text-anchor="middle" x="30" y="-7" font-family="Helvetica,sans-Serif" font-size="10.00">cmath</text>
</a>
</g>
</g>
<!-- Node1&#45;&gt;Node3 -->
<g id="edge2_Node000001_Node000003" class="edge">
<title>Node1&#45;&gt;Node3</title>
<g id="a_edge2_Node000001_Node000003"><a xlink:title=" ">
<path fill="none" stroke="#63b8ff" d="M323.78,-123.5C268.28,-116.62 186.87,-102.4 121,-74 93.03,-61.94 64.89,-40.55 47.47,-25.96"/>
<polygon fill="#63b8ff" stroke="#63b8ff" points="49.69,-23.26 39.82,-19.41 45.14,-28.58 49.69,-23.26"/>
</a>
</g>
</g>
<!-- Node4 -->
<g id="Node000004" class="node">
<title>Node4</title>
<g id="a_Node000004"><a xlink:href="linear__algebra_8h.html" target="_top" xlink:title=" ">
<polygon fill="white" stroke="#666666" points="380.5,-74 241.5,-74 241.5,-55 380.5,-55 380.5,-74"/>
<text text-anchor="middle" x="311" y="-62" font-family="Helvetica,sans-Serif" font-size="10.00">occ/core/linear_algebra.h</text>
</a>
</g>
</g>
<!-- Node1&#45;&gt;Node4 -->
<g id="edge3_Node000001_Node000004" class="edge">
<title>Node1&#45;&gt;Node4</title>
<g id="a_edge3_Node000001_Node000004"><a xlink:title=" ">
<path fill="none" stroke="#63b8ff" d="M364.48,-109.95C353.17,-100.55 339.82,-89.46 329.29,-80.7"/>
<polygon fill="#63b8ff" stroke="#63b8ff" points="331.47,-77.96 321.54,-74.26 326.99,-83.34 331.47,-77.96"/>
</a>
</g>
</g>
<!-- Node8 -->
<g id="Node000008" class="node">
<title>Node8</title>
<g id="a_Node000008"><a xlink:href="log_8h.html" target="_top" xlink:title=" ">
<polygon fill="white" stroke="#666666" points="508,-74 424,-74 424,-55 508,-55 508,-74"/>
<text text-anchor="middle" x="466" y="-62" font-family="Helvetica,sans-Serif" font-size="10.00">occ/core/log.h</text>
</a>
</g>
</g>
<!-- Node1&#45;&gt;Node8 -->
<g id="edge7_Node000001_Node000008" class="edge">
<title>Node1&#45;&gt;Node8</title>
<g id="a_edge7_Node000001_Node000008"><a xlink:title=" ">
<path fill="none" stroke="#63b8ff" d="M411.83,-109.95C423.28,-100.55 436.8,-89.46 447.47,-80.7"/>
<polygon fill="#63b8ff" stroke="#63b8ff" points="449.81,-83.31 455.32,-74.26 445.37,-77.9 449.81,-83.31"/>
</a>
</g>
</g>
<!-- Node11 -->
<g id="Node000011" class="node">
<title>Node11</title>
<g id="a_Node000011"><a xlink:title=" ">
<polygon fill="#e0e0e0" stroke="#999999" points="601,-19 557,-19 557,0 601,0 601,-19"/>
<text text-anchor="middle" x="579" y="-7" font-family="Helvetica,sans-Serif" font-size="10.00">string</text>
</a>
</g>
</g>
<!-- Node1&#45;&gt;Node11 -->
<g id="edge15_Node000001_Node000011" class="edge">
<title>Node1&#45;&gt;Node11</title>
<g id="a_edge15_Node000001_Node000011"><a xlink:title=" ">
<path fill="none" stroke="#63b8ff" d="M446.38,-109.99C469.43,-100.89 495.5,-88.77 517,-74 536.14,-60.85 554.24,-41.18 565.88,-27.22"/>
<polygon fill="#63b8ff" stroke="#63b8ff" points="568.66,-29.34 572.25,-19.37 563.23,-24.93 568.66,-29.34"/>
</a>
</g>
</g>
<!-- Node12 -->
<g id="Node000012" class="node">
<title>Node12</title>
<g id="a_Node000012"><a xlink:title=" ">
<polygon fill="#e0e0e0" stroke="#999999" points="666.5,-19 619.5,-19 619.5,0 666.5,0 666.5,-19"/>
<text text-anchor="middle" x="643" y="-7" font-family="Helvetica,sans-Serif" font-size="10.00">vector</text>
</a>
</g>
</g>
<!-- Node1&#45;&gt;Node12 -->
<g id="edge16_Node000001_Node000012" class="edge">
<title>Node1&#45;&gt;Node12</title>
<g id="a_edge16_Node000001_Node000012"><a xlink:title=" ">
<path fill="none" stroke="#63b8ff" d="M452.28,-110.05C480.68,-100.55 514.11,-88.13 543,-74 572.32,-59.66 603.72,-38.7 623.35,-24.83"/>
<polygon fill="#63b8ff" stroke="#63b8ff" points="625.39,-27.68 631.49,-19.01 621.32,-21.98 625.39,-27.68"/>
</a>
</g>
</g>
<!-- Node13 -->
<g id="Node000013" class="node">
<title>Node13</title>
<g id="a_Node000013"><a xlink:href="units_8h.html" target="_top" xlink:title=" ">
<polygon fill="white" stroke="#666666" points="223.5,-74 130.5,-74 130.5,-55 223.5,-55 223.5,-74"/>
<text text-anchor="middle" x="177" y="-62" font-family="Helvetica,sans-Serif" font-size="10.00">occ/core/units.h</text>
</a>
</g>
</g>
<!-- Node1&#45;&gt;Node13 -->
<g id="edge12_Node000001_Node000013" class="edge">
<title>Node1&#45;&gt;Node13</title>
<g id="a_edge12_Node000001_Node000013"><a xlink:title=" ">
<path fill="none" stroke="#63b8ff" d="M323.83,-110.04C288.21,-99.23 245.13,-86.16 214.87,-76.99"/>
<polygon fill="#63b8ff" stroke="#63b8ff" points="215.71,-73.59 205.13,-74.03 213.68,-80.28 215.71,-73.59"/>
</a>
</g>
</g>
<!-- Node14 -->
<g id="Node000014" class="node">
<title>Node14</title>
<g id="a_Node000014"><a xlink:title=" ">
<polygon fill="#e0e0e0" stroke="#999999" points="667.5,-74 602.5,-74 602.5,-55 667.5,-55 667.5,-74"/>
<text text-anchor="middle" x="635" y="-62" font-family="Helvetica,sans-Serif" font-size="10.00">stdexcept</text>
</a>
</g>
</g>
<!-- Node1&#45;&gt;Node14 -->
<g id="edge14_Node000001_Node000014" class="edge">
<title>Node1&#45;&gt;Node14</title>
<g id="a_edge14_Node000001_Node000014"><a xlink:title=" ">
<path fill="none" stroke="#63b8ff" d="M452.25,-112.85C496.47,-101.39 553.97,-86.5 592.56,-76.5"/>
<polygon fill="#63b8ff" stroke="#63b8ff" points="593.63,-79.84 602.43,-73.94 591.87,-73.06 593.63,-79.84"/>
</a>
</g>
</g>
<!-- Node5 -->
<g id="Node000005" class="node">
<title>Node5</title>
<g id="a_Node000005"><a xlink:title=" ">
<polygon fill="#e0e0e0" stroke="#999999" points="148.5,-19 71.5,-19 71.5,0 148.5,0 148.5,-19"/>
<text text-anchor="middle" x="110" y="-7" font-family="Helvetica,sans-Serif" font-size="10.00">Eigen/Dense</text>
</a>
</g>
</g>
<!-- Node4&#45;&gt;Node5 -->
<g id="edge4_Node000004_Node000005" class="edge">
<title>Node4&#45;&gt;Node5</title>
<g id="a_edge4_Node000004_Node000005"><a xlink:title=" ">
<path fill="none" stroke="#63b8ff" d="M278.71,-54.98C244.38,-45.93 189.94,-31.58 152.23,-21.64"/>
<polygon fill="#63b8ff" stroke="#63b8ff" points="153.11,-18.25 142.55,-19.08 151.32,-25.02 153.11,-18.25"/>
</a>
</g>
</g>
<!-- Node6 -->
<g id="Node000006" class="node">
<title>Node6</title>
<g id="a_Node000006"><a xlink:title=" ">
<polygon fill="#e0e0e0" stroke="#999999" points="259.5,-19 166.5,-19 166.5,0 259.5,0 259.5,-19"/>
<text text-anchor="middle" x="213" y="-7" font-family="Helvetica,sans-Serif" font-size="10.00">Eigen/StdVector</text>
</a>
</g>
</g>
<!-- Node4&#45;&gt;Node6 -->
<g id="edge5_Node000004_Node000006" class="edge">
<title>Node4&#45;&gt;Node6</title>
<g id="a_edge5_Node000004_Node000006"><a xlink:title=" ">
<path fill="none" stroke="#63b8ff" d="M295.25,-54.98C279.77,-46.61 255.91,-33.7 237.86,-23.95"/>
<polygon fill="#63b8ff" stroke="#63b8ff" points="239.49,-20.85 229.03,-19.17 236.16,-27.01 239.49,-20.85"/>
</a>
</g>
</g>
<!-- Node7 -->
<g id="Node000007" class="node">
<title>Node7</title>
<g id="a_Node000007"><a xlink:title=" ">
<polygon fill="#e0e0e0" stroke="#999999" points="344.5,-19 277.5,-19 277.5,0 344.5,0 344.5,-19"/>
<text text-anchor="middle" x="311" y="-7" font-family="Helvetica,sans-Serif" font-size="10.00">fmt/core.h</text>
</a>
</g>
</g>
<!-- Node4&#45;&gt;Node7 -->
<g id="edge6_Node000004_Node000007" class="edge">
<title>Node4&#45;&gt;Node7</title>
<g id="a_edge6_Node000004_Node000007"><a xlink:title=" ">
<path fill="none" stroke="#63b8ff" d="M311,-54.75C311,-47.8 311,-37.85 311,-29.13"/>
<polygon fill="#63b8ff" stroke="#63b8ff" points="314.5,-29.09 311,-19.09 307.5,-29.09 314.5,-29.09"/>
</a>
</g>
</g>
<!-- Node9 -->
<g id="Node000009" class="node">
<title>Node9</title>
<g id="a_Node000009"><a xlink:title=" ">
<polygon fill="#e0e0e0" stroke="#999999" points="427.5,-19 362.5,-19 362.5,0 427.5,0 427.5,-19"/>
<text text-anchor="middle" x="395" y="-7" font-family="Helvetica,sans-Serif" font-size="10.00">functional</text>
</a>
</g>
</g>
<!-- Node8&#45;&gt;Node9 -->
<g id="edge8_Node000008_Node000009" class="edge">
<title>Node8&#45;&gt;Node9</title>
<g id="a_edge8_Node000008_Node000009"><a xlink:title=" ">
<path fill="none" stroke="#63b8ff" d="M454.59,-54.98C443.89,-47 427.66,-34.88 414.84,-25.31"/>
<polygon fill="#63b8ff" stroke="#63b8ff" points="416.72,-22.35 406.61,-19.17 412.53,-27.96 416.72,-22.35"/>
</a>
</g>
</g>
<!-- Node10 -->
<g id="Node000010" class="node">
<title>Node10</title>
<g id="a_Node000010"><a xlink:title=" ">
<polygon fill="#e0e0e0" stroke="#999999" points="538.5,-19 445.5,-19 445.5,0 538.5,0 538.5,-19"/>
<text text-anchor="middle" x="492" y="-7" font-family="Helvetica,sans-Serif" font-size="10.00">spdlog/spdlog.h</text>
</a>
</g>
</g>
<!-- Node8&#45;&gt;Node10 -->
<g id="edge9_Node000008_Node000010" class="edge">
<title>Node8&#45;&gt;Node10</title>
<g id="a_edge9_Node000008_Node000010"><a xlink:title=" ">
<path fill="none" stroke="#63b8ff" d="M470.29,-54.75C473.81,-47.57 478.91,-37.18 483.28,-28.27"/>
<polygon fill="#63b8ff" stroke="#63b8ff" points="486.52,-29.61 487.79,-19.09 480.24,-26.53 486.52,-29.61"/>
</a>
</g>
</g>
<!-- Node8&#45;&gt;Node11 -->
<g id="edge10_Node000008_Node000011" class="edge">
<title>Node8&#45;&gt;Node11</title>
<g id="a_edge10_Node000008_Node000011"><a xlink:title=" ">
<path fill="none" stroke="#63b8ff" d="M484.16,-54.98C502.25,-46.5 530.28,-33.35 551.19,-23.54"/>
<polygon fill="#63b8ff" stroke="#63b8ff" points="552.95,-26.59 560.51,-19.17 549.97,-20.25 552.95,-26.59"/>
</a>
</g>
</g>
<!-- Node8&#45;&gt;Node12 -->
<g id="edge11_Node000008_Node000012" class="edge">
<title>Node8&#45;&gt;Node12</title>
<g id="a_edge11_Node000008_Node000012"><a xlink:title=" ">
<path fill="none" stroke="#63b8ff" d="M494.44,-54.98C525.88,-45.57 576.46,-30.42 609.72,-20.46"/>
<polygon fill="#63b8ff" stroke="#63b8ff" points="610.87,-23.77 619.45,-17.55 608.86,-17.07 610.87,-23.77"/>
</a>
</g>
</g>
<!-- Node13&#45;&gt;Node3 -->
<g id="edge13_Node000013_Node000003" class="edge">
<title>Node13&#45;&gt;Node3</title>
<g id="a_edge13_Node000013_Node000003"><a xlink:title=" ">
<path fill="none" stroke="#63b8ff" d="M153.38,-54.98C128.95,-46.18 90.6,-32.35 63.14,-22.45"/>
<polygon fill="#63b8ff" stroke="#63b8ff" points="64.15,-19.09 53.56,-18.99 61.78,-25.68 64.15,-19.09"/>
</a>
</g>
</g>
</g>
</svg>
