<?xml version="1.0" encoding="UTF-8" standalone="no"?>
<!DOCTYPE svg PUBLIC "-//W3C//DTD SVG 1.1//EN"
 "http://www.w3.org/Graphics/SVG/1.1/DTD/svg11.dtd">
<!-- Generated by graphviz version 2.43.0 (0)
 -->
<!-- Title: /home/runner/work/occ/occ/include/occ/main/occ_elastic_fit.h Pages: 1 -->
<svg width="802pt" height="159pt"
 viewBox="0.00 0.00 801.50 159.00" xmlns="http://www.w3.org/2000/svg" xmlns:xlink="http://www.w3.org/1999/xlink">
<g id="graph0" class="graph" transform="scale(1 1) rotate(0) translate(4 155)">
<title>/home/runner/work/occ/occ/include/occ/main/occ_elastic_fit.h</title>
<!-- Node1 -->
<g id="Node000001" class="node">
<title>Node1</title>
<g id="a_Node000001"><a xlink:title=" ">
<polygon fill="#999999" stroke="#666666" points="500,-151 372,-151 372,-110 500,-110 500,-151"/>
<text text-anchor="start" x="380" y="-139" font-family="Helvetica,sans-Serif" font-size="10.00">/home/runner/work/occ</text>
<text text-anchor="start" x="380" y="-128" font-family="Helvetica,sans-Serif" font-size="10.00">/occ/include/occ/main</text>
<text text-anchor="middle" x="436" y="-117" font-family="Helvetica,sans-Serif" font-size="10.00">/occ_elastic_fit.h</text>
</a>
</g>
</g>
<!-- Node2 -->
<g id="Node000002" class="node">
<title>Node2</title>
<g id="a_Node000002"><a xlink:title=" ">
<polygon fill="#e0e0e0" stroke="#999999" points="74,-74 0,-74 0,-55 74,-55 74,-74"/>
<text text-anchor="middle" x="37" y="-62" font-family="Helvetica,sans-Serif" font-size="10.00">CLI/App.hpp</text>
</a>
</g>
</g>
<!-- Node1&#45;&gt;Node2 -->
<g id="edge1_Node000001_Node000002" class="edge">
<title>Node1&#45;&gt;Node2</title>
<g id="a_edge1_Node000001_Node000002"><a xlink:title=" ">
<path fill="none" stroke="#63b8ff" d="M371.82,-119.94C303.16,-109.59 190.8,-92.31 84.12,-74.15"/>
<polygon fill="#63b8ff" stroke="#63b8ff" points="84.59,-70.68 74.14,-72.45 83.41,-77.58 84.59,-70.68"/>
</a>
</g>
</g>
<!-- Node3 -->
<g id="Node000003" class="node">
<title>Node3</title>
<g id="a_Node000003"><a xlink:title=" ">
<polygon fill="#e0e0e0" stroke="#999999" points="198,-74 92,-74 92,-55 198,-55 198,-74"/>
<text text-anchor="middle" x="145" y="-62" font-family="Helvetica,sans-Serif" font-size="10.00">Eigen/Eigenvalues</text>
</a>
</g>
</g>
<!-- Node1&#45;&gt;Node3 -->
<g id="edge2_Node000001_Node000003" class="edge">
<title>Node1&#45;&gt;Node3</title>
<g id="a_edge2_Node000001_Node000003"><a xlink:title=" ">
<path fill="none" stroke="#63b8ff" d="M371.78,-115.38C318.18,-103.59 242.92,-87.04 194.06,-76.29"/>
<polygon fill="#63b8ff" stroke="#63b8ff" points="194.57,-72.82 184.05,-74.09 193.06,-79.65 194.57,-72.82"/>
</a>
</g>
</g>
<!-- Node4 -->
<g id="Node000004" class="node">
<title>Node4</title>
<g id="a_Node000004"><a xlink:title=" ">
<polygon fill="#e0e0e0" stroke="#999999" points="178.5,-19 131.5,-19 131.5,0 178.5,0 178.5,-19"/>
<text text-anchor="middle" x="155" y="-7" font-family="Helvetica,sans-Serif" font-size="10.00">cmath</text>
</a>
</g>
</g>
<!-- Node1&#45;&gt;Node4 -->
<g id="edge3_Node000001_Node000004" class="edge">
<title>Node1&#45;&gt;Node4</title>
<g id="a_edge3_Node000001_Node000004"><a xlink:title=" ">
<path fill="none" stroke="#63b8ff" d="M410.09,-109.95C386.98,-93.32 351.7,-69.84 318,-55 314.98,-53.67 235.38,-32.15 188.56,-19.53"/>
<polygon fill="#63b8ff" stroke="#63b8ff" points="189.39,-16.13 178.82,-16.91 187.57,-22.89 189.39,-16.13"/>
</a>
</g>
</g>
<!-- Node5 -->
<g id="Node000005" class="node">
<title>Node5</title>
<g id="a_Node000005"><a xlink:href="linear__algebra_8h.html" target="_top" xlink:title=" ">
<polygon fill="white" stroke="#666666" points="505.5,-74 366.5,-74 366.5,-55 505.5,-55 505.5,-74"/>
<text text-anchor="middle" x="436" y="-62" font-family="Helvetica,sans-Serif" font-size="10.00">occ/core/linear_algebra.h</text>
</a>
</g>
</g>
<!-- Node1&#45;&gt;Node5 -->
<g id="edge4_Node000001_Node000005" class="edge">
<title>Node1&#45;&gt;Node5</title>
<g id="a_edge4_Node000001_Node000005"><a xlink:title=" ">
<path fill="none" stroke="#63b8ff" d="M436,-109.95C436,-101.85 436,-92.5 436,-84.47"/>
<polygon fill="#63b8ff" stroke="#63b8ff" points="439.5,-84.26 436,-74.26 432.5,-84.26 439.5,-84.26"/>
</a>
</g>
</g>
<!-- Node9 -->
<g id="Node000009" class="node">
<title>Node9</title>
<g id="a_Node000009"><a xlink:href="log_8h.html" target="_top" xlink:title=" ">
<polygon fill="white" stroke="#666666" points="634,-74 550,-74 550,-55 634,-55 634,-74"/>
<text text-anchor="middle" x="592" y="-62" font-family="Helvetica,sans-Serif" font-size="10.00">occ/core/log.h</text>
</a>
</g>
</g>
<!-- Node1&#45;&gt;Node9 -->
<g id="edge8_Node000001_Node000009" class="edge">
<title>Node1&#45;&gt;Node9</title>
<g id="a_edge8_Node000001_Node000009"><a xlink:title=" ">
<path fill="none" stroke="#63b8ff" d="M483.65,-109.95C508.98,-99.56 539.37,-87.09 561.51,-78.01"/>
<polygon fill="#63b8ff" stroke="#63b8ff" points="563.13,-81.13 571.06,-74.09 560.48,-74.65 563.13,-81.13"/>
</a>
</g>
</g>
<!-- Node12 -->
<g id="Node000012" class="node">
<title>Node12</title>
<g id="a_Node000012"><a xlink:title=" ">
<polygon fill="#e0e0e0" stroke="#999999" points="726,-19 682,-19 682,0 726,0 726,-19"/>
<text text-anchor="middle" x="704" y="-7" font-family="Helvetica,sans-Serif" font-size="10.00">string</text>
</a>
</g>
</g>
<!-- Node1&#45;&gt;Node12 -->
<g id="edge16_Node000001_Node000012" class="edge">
<title>Node1&#45;&gt;Node12</title>
<g id="a_edge16_Node000001_Node000012"><a xlink:title=" ">
<path fill="none" stroke="#63b8ff" d="M500.15,-121.48C542.92,-114 599.12,-99.93 643,-74 663.05,-62.15 680.85,-41.91 691.96,-27.47"/>
<polygon fill="#63b8ff" stroke="#63b8ff" points="694.84,-29.46 697.99,-19.35 689.22,-25.29 694.84,-29.46"/>
</a>
</g>
</g>
<!-- Node13 -->
<g id="Node000013" class="node">
<title>Node13</title>
<g id="a_Node000013"><a xlink:title=" ">
<polygon fill="#e0e0e0" stroke="#999999" points="791.5,-19 744.5,-19 744.5,0 791.5,0 791.5,-19"/>
<text text-anchor="middle" x="768" y="-7" font-family="Helvetica,sans-Serif" font-size="10.00">vector</text>
</a>
</g>
</g>
<!-- Node1&#45;&gt;Node13 -->
<g id="edge17_Node000001_Node000013" class="edge">
<title>Node1&#45;&gt;Node13</title>
<g id="a_edge17_Node000001_Node000013"><a xlink:title=" ">
<path fill="none" stroke="#63b8ff" d="M500.07,-120.05C547.69,-111.64 613.55,-97.04 668,-74 698.39,-61.14 729.96,-39.46 749.3,-25.07"/>
<polygon fill="#63b8ff" stroke="#63b8ff" points="751.42,-27.85 757.28,-19.02 747.19,-22.27 751.42,-27.85"/>
</a>
</g>
</g>
<!-- Node14 -->
<g id="Node000014" class="node">
<title>Node14</title>
<g id="a_Node000014"><a xlink:href="units_8h.html" target="_top" xlink:title=" ">
<polygon fill="white" stroke="#666666" points="309.5,-74 216.5,-74 216.5,-55 309.5,-55 309.5,-74"/>
<text text-anchor="middle" x="263" y="-62" font-family="Helvetica,sans-Serif" font-size="10.00">occ/core/units.h</text>
</a>
</g>
</g>
<!-- Node1&#45;&gt;Node14 -->
<g id="edge13_Node000001_Node000014" class="edge">
<title>Node1&#45;&gt;Node14</title>
<g id="a_edge13_Node000001_Node000014"><a xlink:title=" ">
<path fill="none" stroke="#63b8ff" d="M383.15,-109.95C354.68,-99.42 320.45,-86.75 295.82,-77.64"/>
<polygon fill="#63b8ff" stroke="#63b8ff" points="296.82,-74.28 286.22,-74.09 294.39,-80.84 296.82,-74.28"/>
</a>
</g>
</g>
<!-- Node15 -->
<g id="Node000015" class="node">
<title>Node15</title>
<g id="a_Node000015"><a xlink:title=" ">
<polygon fill="#e0e0e0" stroke="#999999" points="793.5,-74 728.5,-74 728.5,-55 793.5,-55 793.5,-74"/>
<text text-anchor="middle" x="761" y="-62" font-family="Helvetica,sans-Serif" font-size="10.00">stdexcept</text>
</a>
</g>
</g>
<!-- Node1&#45;&gt;Node15 -->
<g id="edge15_Node000001_Node000015" class="edge">
<title>Node1&#45;&gt;Node15</title>
<g id="a_edge15_Node000001_Node000015"><a xlink:title=" ">
<path fill="none" stroke="#63b8ff" d="M500.21,-116.86C564.82,-104.13 662.64,-84.87 718.29,-73.91"/>
<polygon fill="#63b8ff" stroke="#63b8ff" points="719.04,-77.33 728.17,-71.96 717.69,-70.46 719.04,-77.33"/>
</a>
</g>
</g>
<!-- Node6 -->
<g id="Node000006" class="node">
<title>Node6</title>
<g id="a_Node000006"><a xlink:title=" ">
<polygon fill="#e0e0e0" stroke="#999999" points="273.5,-19 196.5,-19 196.5,0 273.5,0 273.5,-19"/>
<text text-anchor="middle" x="235" y="-7" font-family="Helvetica,sans-Serif" font-size="10.00">Eigen/Dense</text>
</a>
</g>
</g>
<!-- Node5&#45;&gt;Node6 -->
<g id="edge5_Node000005_Node000006" class="edge">
<title>Node5&#45;&gt;Node6</title>
<g id="a_edge5_Node000005_Node000006"><a xlink:title=" ">
<path fill="none" stroke="#63b8ff" d="M403.71,-54.98C369.38,-45.93 314.94,-31.58 277.23,-21.64"/>
<polygon fill="#63b8ff" stroke="#63b8ff" points="278.11,-18.25 267.55,-19.08 276.32,-25.02 278.11,-18.25"/>
</a>
</g>
</g>
<!-- Node7 -->
<g id="Node000007" class="node">
<title>Node7</title>
<g id="a_Node000007"><a xlink:title=" ">
<polygon fill="#e0e0e0" stroke="#999999" points="384.5,-19 291.5,-19 291.5,0 384.5,0 384.5,-19"/>
<text text-anchor="middle" x="338" y="-7" font-family="Helvetica,sans-Serif" font-size="10.00">Eigen/StdVector</text>
</a>
</g>
</g>
<!-- Node5&#45;&gt;Node7 -->
<g id="edge6_Node000005_Node000007" class="edge">
<title>Node5&#45;&gt;Node7</title>
<g id="a_edge6_Node000005_Node000007"><a xlink:title=" ">
<path fill="none" stroke="#63b8ff" d="M420.25,-54.98C404.77,-46.61 380.91,-33.7 362.86,-23.95"/>
<polygon fill="#63b8ff" stroke="#63b8ff" points="364.49,-20.85 354.03,-19.17 361.16,-27.01 364.49,-20.85"/>
</a>
</g>
</g>
<!-- Node8 -->
<g id="Node000008" class="node">
<title>Node8</title>
<g id="a_Node000008"><a xlink:title=" ">
<polygon fill="#e0e0e0" stroke="#999999" points="469.5,-19 402.5,-19 402.5,0 469.5,0 469.5,-19"/>
<text text-anchor="middle" x="436" y="-7" font-family="Helvetica,sans-Serif" font-size="10.00">fmt/core.h</text>
</a>
</g>
</g>
<!-- Node5&#45;&gt;Node8 -->
<g id="edge7_Node000005_Node000008" class="edge">
<title>Node5&#45;&gt;Node8</title>
<g id="a_edge7_Node000005_Node000008"><a xlink:title=" ">
<path fill="none" stroke="#63b8ff" d="M436,-54.75C436,-47.8 436,-37.85 436,-29.13"/>
<polygon fill="#63b8ff" stroke="#63b8ff" points="439.5,-29.09 436,-19.09 432.5,-29.09 439.5,-29.09"/>
</a>
</g>
</g>
<!-- Node10 -->
<g id="Node000010" class="node">
<title>Node10</title>
<g id="a_Node000010"><a xlink:title=" ">
<polygon fill="#e0e0e0" stroke="#999999" points="552.5,-19 487.5,-19 487.5,0 552.5,0 552.5,-19"/>
<text text-anchor="middle" x="520" y="-7" font-family="Helvetica,sans-Serif" font-size="10.00">functional</text>
</a>
</g>
</g>
<!-- Node9&#45;&gt;Node10 -->
<g id="edge9_Node000009_Node000010" class="edge">
<title>Node9&#45;&gt;Node10</title>
<g id="a_edge9_Node000009_Node000010"><a xlink:title=" ">
<path fill="none" stroke="#63b8ff" d="M580.43,-54.98C569.58,-47 553.12,-34.88 540.12,-25.31"/>
<polygon fill="#63b8ff" stroke="#63b8ff" points="541.91,-22.28 531.78,-19.17 537.76,-27.92 541.91,-22.28"/>
</a>
</g>
</g>
<!-- Node11 -->
<g id="Node000011" class="node">
<title>Node11</title>
<g id="a_Node000011"><a xlink:title=" ">
<polygon fill="#e0e0e0" stroke="#999999" points="663.5,-19 570.5,-19 570.5,0 663.5,0 663.5,-19"/>
<text text-anchor="middle" x="617" y="-7" font-family="Helvetica,sans-Serif" font-size="10.00">spdlog/spdlog.h</text>
</a>
</g>
</g>
<!-- Node9&#45;&gt;Node11 -->
<g id="edge10_Node000009_Node000011" class="edge">
<title>Node9&#45;&gt;Node11</title>
<g id="a_edge10_Node000009_Node000011"><a xlink:title=" ">
<path fill="none" stroke="#63b8ff" d="M596.13,-54.75C599.51,-47.57 604.42,-37.18 608.62,-28.27"/>
<polygon fill="#63b8ff" stroke="#63b8ff" points="611.85,-29.63 612.95,-19.09 605.52,-26.64 611.85,-29.63"/>
</a>
</g>
</g>
<!-- Node9&#45;&gt;Node12 -->
<g id="edge11_Node000009_Node000012" class="edge">
<title>Node9&#45;&gt;Node12</title>
<g id="a_edge11_Node000009_Node000012"><a xlink:title=" ">
<path fill="none" stroke="#63b8ff" d="M609.99,-54.98C627.93,-46.5 655.72,-33.35 676.43,-23.54"/>
<polygon fill="#63b8ff" stroke="#63b8ff" points="678.14,-26.61 685.68,-19.17 675.14,-20.28 678.14,-26.61"/>
</a>
</g>
</g>
<!-- Node9&#45;&gt;Node13 -->
<g id="edge12_Node000009_Node000013" class="edge">
<title>Node9&#45;&gt;Node13</title>
<g id="a_edge12_Node000009_Node000013"><a xlink:title=" ">
<path fill="none" stroke="#63b8ff" d="M620.28,-54.98C651.45,-45.6 701.56,-30.51 734.63,-20.55"/>
<polygon fill="#63b8ff" stroke="#63b8ff" points="735.74,-23.87 744.31,-17.63 733.72,-17.17 735.74,-23.87"/>
</a>
</g>
</g>
<!-- Node14&#45;&gt;Node4 -->
<g id="edge14_Node000014_Node000004" class="edge">
<title>Node14&#45;&gt;Node4</title>
<g id="a_edge14_Node000014_Node000004"><a xlink:title=" ">
<path fill="none" stroke="#63b8ff" d="M245.65,-54.98C228.43,-46.54 201.8,-33.47 181.85,-23.68"/>
<polygon fill="#63b8ff" stroke="#63b8ff" points="183.19,-20.43 172.67,-19.17 180.1,-26.72 183.19,-20.43"/>
</a>
</g>
</g>
</g>
</svg>
